{
  "accessors": [
    {
      "bufferView": 2,
      "componentType": 5126,
      "count": 9212,
      "max": [
        0.83852601051330566,
        0.42765799164772034,
        1
      ],
      "min": [
        0.047352898865938187,
        -0.42765799164772034,
        -1
      ],
      "type": "VEC3"
    },
    {
      "bufferView": 2,
      "byteOffset": 110544,
      "componentType": 5126,
      "count": 9212,
      "max": [
        0.99999910593032837,
        0.99999874830245972,
        0.99950402975082397
      ],
      "min": [
        -0.99997854232788086,
        -0.99999898672103882,
        -0.99770426750183105
      ],
      "type": "VEC3"
    },
    {
      "bufferView": 3,
      "componentType": 5126,
      "count": 9212,
      "max": [
        0.99999713897705078,
        0.99998903274536133,
        0.99995183944702148,
        1
      ],
      "min": [
        -0.99967676401138306,
        -0.99884563684463501,
        -0.99998867511749268,
        -1
      ],
      "type": "VEC4"
    },
    {
      "bufferView": 2,
      "byteOffset": 221088,
      "componentType": 5126,
      "count": 9212,
      "max": [
        1,
        1,
        1
      ],
      "min": [
        0,
        0,
        0
      ],
      "type": "VEC3"
    },
    {
      "bufferView": 1,
      "componentType": 5126,
      "count": 9212,
      "max": [
        0.99800002574920654,
        0.99750000238418579
      ],
      "min": [
        0.0020000000949949026,
        0.0020000000949949026
      ],
      "type": "VEC2"
    },
    {
      "bufferView": 0,
      "componentType": 5125,
      "count": 45714,
      "max": [
        9211
      ],
      "min": [
        0
      ],
      "type": "SCALAR"
    },
    {
      "bufferView": 2,
      "byteOffset": 331632,
      "componentType": 5126,
      "count": 9212,
      "max": [
        -0.047352898865938187,
        0.42765799164772034,
        1
      ],
      "min": [
        -0.83852601051330566,
        -0.42765799164772034,
        -1
      ],
      "type": "VEC3"
    },
    {
      "bufferView": 2,
      "byteOffset": 442176,
      "componentType": 5126,
      "count": 9212,
      "max": [
        0.99997854232788086,
        0.99999874830245972,
        0.99950402975082397
      ],
      "min": [
        -0.99999910593032837,
        -0.99999898672103882,
        -0.99770426750183105
      ],
      "type": "VEC3"
    },
    {
      "bufferView": 3,
      "byteOffset": 147392,
      "componentType": 5126,
      "count": 9212,
      "max": [
        0.99967670440673828,
        0.99998903274536133,
        0.99995183944702148,
        1
      ],
      "min": [
        -0.99999713897705078,
        -0.99884557723999023,
        -0.99998867511749268,
        -1
      ],
      "type": "VEC4"
    },
    {
      "bufferView": 2,
      "byteOffset": 552720,
      "componentType": 5126,
      "count": 9212,
      "max": [
        1,
        1,
        1
      ],
      "min": [
        0,
        0,
        0
      ],
      "type": "VEC3"
    },
    {
      "bufferView": 1,
      "byteOffset": 73696,
      "componentType": 5126,
      "count": 9212,
      "max": [
        0.99800002574920654,
        0.99750000238418579
      ],
      "min": [
        0.0020000000949949026,
        0.0020000000949949026
      ],
      "type": "VEC2"
    },
    {
      "bufferView": 0,
      "byteOffset": 182856,
      "componentType": 5125,
      "count": 45714,
      "max": [
        9211
      ],
      "min": [
        0
      ],
      "type": "SCALAR"
    }
  ],
  "asset": {
    "extras": {
      "author": "Geug (https://sketchfab.com/Geug)",
      "license": "CC-BY-4.0 (http://creativecommons.org/licenses/by/4.0/)",
      "source": "https://sketchfab.com/3d-models/adidas-sport-shoes-lowpoly-freebie-5c4681af5db54367b51b2bf37e5b2427",
      "title": "Adidas Sport Shoes LowPoly Freebie"
    },
    "generator": "Sketchfab-5.64.0",
    "version": "2.0"
  },
  "bufferViews": [
    {
      "buffer": 0,
      "byteLength": 365712,
      "byteOffset": 0,
      "name": "floatBufferViews",
      "target": 34963
    },
    {
      "buffer": 0,
      "byteLength": 147392,
      "byteOffset": 365712,
      "byteStride": 8,
      "name": "floatBufferViews",
      "target": 34962
    },
    {
      "buffer": 0,
      "byteLength": 663264,
      "byteOffset": 513104,
      "byteStride": 12,
      "name": "floatBufferViews",
      "target": 34962
    },
    {
      "buffer": 0,
      "byteLength": 294784,
      "byteOffset": 1176368,
      "byteStride": 16,
      "name": "floatBufferViews",
      "target": 34962
    }
  ],
  "buffers": [
    {
      "byteLength": 1471152,
      "uri": "scene.bin"
    }
  ],
  "images": [
    {
      "uri": "textures/01___Default_baseColor.jpeg"
    },
    {
      "uri": "textures/01___Default_metallicRoughness.png"
    },
    {
      "uri": "textures/01___Default_normal.jpeg"
    },
    {
      "uri": "textures/01___Default1_baseColor.jpeg"
    },
    {
      "uri": "textures/01___Default1_metallicRoughness.png"
    },
    {
      "uri": "textures/01___Default1_normal.jpeg"
    }
  ],
  "materials": [
    {
      "doubleSided": true,
      "name": "01___Default",
      "normalTexture": {
        "index": 2,
        "scale": 1,
        "texCoord": 0
      },
      "pbrMetallicRoughness": {
        "baseColorFactor": [
          1,
          1,
          1,
          1
        ],
        "baseColorTexture": {
          "index": 0,
          "texCoord": 0
        },
        "metallicFactor": 1,
        "metallicRoughnessTexture": {
          "index": 1,
          "texCoord": 0
        },
        "roughnessFactor": 1
      }
    },
    {
      "doubleSided": false,
      "name": "01___Default1",
      "normalTexture": {
        "index": 5,
        "scale": 1,
        "texCoord": 0
      },
      "pbrMetallicRoughness": {
        "baseColorFactor": [
          1,
          1,
          1,
          1
        ],
        "baseColorTexture": {
          "index": 3,
          "texCoord": 0
        },
        "metallicFactor": 1,
        "metallicRoughnessTexture": {
          "index": 4,
          "texCoord": 0
        },
        "roughnessFactor": 1
      }
    }
  ],
  "meshes": [
    {
      "name": "defaultMaterial",
      "primitives": [
        {
          "attributes": {
            "COLOR_0": 3,
            "NORMAL": 1,
            "POSITION": 0,
            "TANGENT": 2,
            "TEXCOORD_0": 4
          },
          "indices": 5,
          "material": 1,
          "mode": 4
        }
      ]
    },
    {
      "name": "defaultMaterial",
      "primitives": [
        {
          "attributes": {
            "COLOR_0": 9,
            "NORMAL": 7,
            "POSITION": 6,
            "TANGENT": 8,
            "TEXCOORD_0": 10
          },
          "indices": 11,
          "material": 0,
          "mode": 4
        }
      ]
    }
  ],
  "nodes": [
    {
      "children": [
        1
      ],
      "name": "RootNode (gltf orientation matrix)",
      "rotation": [
        -0.70710678118654746,
        -0,
        -0,
        0.70710678118654757
      ]
    },
    {
      "children": [
        2
      ],
      "name": "RootNode (model correction matrix)"
    },
    {
      "children": [
        3,
        5
      ],
      "matrix": [
        1,
        0,
        0,
        0,
        0,
        -4.3711390063094768e-08,
        0.999999999999999,
        0,
        0,
        -0.999999999999999,
        -4.3711390063094768e-08,
        0,
        0,
        0,
        0,
        1
      ],
      "name": "Collada visual scene group"
    },
    {
      "children": [
        4
      ],
      "name": "right"
    },
    {
      "mesh": 0,
      "name": "defaultMaterial"
    },
    {
      "children": [
        6
      ],
      "name": "right"
    },
    {
      "mesh": 1,
      "name": "defaultMaterial"
    }
  ],
  "samplers": [
    {
      "magFilter": 9729,
      "minFilter": 9987,
      "wrapS": 10497,
      "wrapT": 10497
    }
  ],
  "scene": 0,
  "scenes": [
    {
      "name": "OSG_Scene",
      "nodes": [
        0
      ]
    }
  ],
  "textures": [
    {
      "sampler": 0,
      "source": 0
    },
    {
      "sampler": 0,
      "source": 1
    },
    {
      "sampler": 0,
      "source": 2
    },
    {
      "sampler": 0,
      "source": 3
    },
    {
      "sampler": 0,
      "source": 4
    },
    {
      "sampler": 0,
      "source": 5
    }
  ]
}

